<svg width="10" height="29" viewBox="0 0 10 29" fill="none" xmlns="http://www.w3.org/2000/svg">
<g clip-path="url(#clip0_4_825)">
<path d="M0.764157 22C0.550831 22 0.368472 21.926 0.217079 21.7781C0.0656865 21.6301 -0.0100098 21.4495 -0.0100098 21.2362C-0.0100098 21.0228 0.0691273 20.837 0.227401 20.6788L4.39758 16.5189L0.227401 12.359C0.0691273 12.2008 -0.0100098 12.015 -0.0100098 11.8016C-0.0100098 11.5883 0.0656865 11.4077 0.217079 11.2597C0.368472 11.1118 0.550831 11.0378 0.764157 11.0378C0.96372 11.0378 1.14264 11.1101 1.30091 11.2546L6.00784 15.9409C6.173 16.0922 6.25558 16.2849 6.25558 16.5189C6.25558 16.7391 6.173 16.9318 6.00784 17.0969L1.30091 21.7832C1.1564 21.9277 0.977483 22 0.764157 22Z" fill="#2997FF"/>
</g>
<defs>
<clipPath id="clip0_4_825">
<rect width="9.51" height="29" fill="white" transform="matrix(1 0 0 -1 -0.0100098 29)"/>
</clipPath>
</defs>
</svg>
